<svg width="950" height="820" viewBox="0 0 950 820" xmlns="http://www.w3.org/2000/svg" font-family="Helvetica, Arial, sans-serif">
<defs>
<marker id="arrow" viewBox="0 0 10 10" refX="8" refY="5" markerWidth="6" markerHeight="6" orient="auto-start-reverse">
<path d="M2 1L8 5L2 9" fill="none" stroke="#5F5E5A" stroke-width="1.5" stroke-linecap="round" stroke-linejoin="round"/>
</marker>
</defs>

<rect width="950" height="820" fill="#141414"/>

<rect x="20" y="30" width="280" height="160" rx="16" fill="#232320" stroke="#3a3a36" stroke-width="0.5"/>
<text x="160" y="52" text-anchor="middle" font-size="14" font-weight="600" fill="#F1EFE8">Testing &amp; CI/CD</text>

<rect x="35" y="90" width="120" height="44" rx="6" fill="#39392f" stroke="#54534a" stroke-width="0.5"/>
<text x="95" y="104" text-anchor="middle" font-size="11" fill="#D3D1C7">.github/workflows/</text>
<text x="95" y="120" text-anchor="middle" font-size="11" fill="#D3D1C7">CI pipeline</text>

<rect x="175" y="65" width="110" height="44" rx="6" fill="#0d4a3c" stroke="#136e59" stroke-width="0.5"/>
<text x="230" y="79" text-anchor="middle" font-size="11" fill="#9FE1CB">tests/: pytest,</text>
<text x="230" y="95" text-anchor="middle" font-size="11" fill="#9FE1CB">mocks &amp; integration</text>

<rect x="175" y="140" width="110" height="34" rx="6" fill="#39392f" stroke="#54534a" stroke-width="0.5"/>
<text x="230" y="161" text-anchor="middle" font-size="11" fill="#D3D1C7">Docker Compose stack</text>

<path d="M155 100L175 87" stroke="#5F5E5A" stroke-width="1.5" fill="none" marker-end="url(#arrow)"/>
<path d="M155 118L175 157" stroke="#5F5E5A" stroke-width="1.5" fill="none" marker-end="url(#arrow)"/>

<ellipse cx="480" cy="55" rx="65" ry="18" fill="#232320" stroke="#3a3a36" stroke-width="0.5"/>
<text x="480" y="59" text-anchor="middle" font-size="12" fill="#D3D1C7">Client / browser</text>

<ellipse cx="605" cy="55" rx="60" ry="18" fill="#232320" stroke="#3a3a36" stroke-width="0.5"/>
<text x="605" y="59" text-anchor="middle" font-size="12" fill="#D3D1C7">API consumer</text>

<ellipse cx="730" cy="55" rx="65" ry="18" fill="#232320" stroke="#3a3a36" stroke-width="0.5"/>
<text x="730" y="59" text-anchor="middle" font-size="12" fill="#D3D1C7">Async API consumer</text>

<ellipse cx="860" cy="55" rx="55" ry="18" fill="#232320" stroke="#3a3a36" stroke-width="0.5"/>
<text x="860" y="59" text-anchor="middle" font-size="12" fill="#D3D1C7">Administrator</text>

<text x="480" y="98" text-anchor="middle" font-size="11" fill="#888780">HTML / Gunicorn</text>
<line x1="480" y1="73" x2="465" y2="185" stroke="#5F5E5A" stroke-width="1.5" marker-end="url(#arrow)"/>
<text x="610" y="98" text-anchor="middle" font-size="11" fill="#888780">JSON v1 / Swagger</text>
<line x1="605" y1="73" x2="580" y2="185" stroke="#5F5E5A" stroke-width="1.5" marker-end="url(#arrow)"/>
<text x="735" y="98" text-anchor="middle" font-size="11" fill="#888780">JSON v2 / async</text>
<line x1="730" y1="73" x2="700" y2="185" stroke="#5F5E5A" stroke-width="1.5" marker-end="url(#arrow)"/>
<text x="860" y="98" text-anchor="middle" font-size="11" fill="#888780">Command line</text>
<line x1="860" y1="73" x2="860" y2="185" stroke="#5F5E5A" stroke-width="1.5" marker-end="url(#arrow)"/>

<rect x="410" y="185" width="540" height="405" rx="16" fill="#232320" stroke="#3a3a36" stroke-width="0.5"/>
<text x="680" y="207" text-anchor="middle" font-size="14" font-weight="600" fill="#F1EFE8">Shared modules &amp; business logic</text>

<rect x="425" y="225" width="95" height="34" rx="6" fill="#0d3d6e" stroke="#175a9e" stroke-width="0.5"/>
<text x="472" y="246" text-anchor="middle" font-size="11" fill="#B5D4F4">WEB / app.py</text>

<rect x="530" y="225" width="120" height="34" rx="6" fill="#0d3d6e" stroke="#175a9e" stroke-width="0.5"/>
<text x="590" y="246" text-anchor="middle" font-size="11" fill="#B5D4F4">api_routes.py (/api)</text>

<rect x="660" y="225" width="105" height="34" rx="6" fill="#0d5a4e" stroke="#158a72" stroke-width="0.5"/>
<text x="712" y="246" text-anchor="middle" font-size="11" fill="#9FE1CB">API / main.py (v2)</text>

<rect x="775" y="225" width="75" height="34" rx="6" fill="#0d3d6e" stroke="#175a9e" stroke-width="0.5"/>
<text x="812" y="246" text-anchor="middle" font-size="11" fill="#B5D4F4">CLI / main.py</text>

<rect x="530" y="272" width="55" height="30" rx="6" fill="#3a2a5c" stroke="#54408a" stroke-width="0.5"/>
<text x="557" y="291" text-anchor="middle" font-size="10" fill="#CBB8F0">/apidocs</text>

<rect x="592" y="272" width="55" height="30" rx="6" fill="#3a2a5c" stroke="#54408a" stroke-width="0.5"/>
<text x="619" y="291" text-anchor="middle" font-size="10" fill="#CBB8F0">/health</text>

<rect x="654" y="272" width="55" height="30" rx="6" fill="#3a2a5c" stroke="#54408a" stroke-width="0.5"/>
<text x="681" y="291" text-anchor="middle" font-size="10" fill="#CBB8F0">/metrics</text>

<rect x="660" y="272" width="0" height="0"/>
<rect x="716" y="272" width="70" height="30" rx="6" fill="#0d5a4e" stroke="#158a72" stroke-width="0.5"/>
<text x="751" y="291" text-anchor="middle" font-size="9" fill="#9FE1CB">/api/v2/health</text>

<rect x="425" y="325" width="90" height="48" rx="6" fill="#302a70" stroke="#463a9e" stroke-width="0.5"/>
<text x="470" y="343" text-anchor="middle" font-size="11" fill="#CECBF6">models.py:</text>
<text x="470" y="359" text-anchor="middle" font-size="11" fill="#CECBF6">SQLAlchemy ORM</text>

<rect x="525" y="325" width="105" height="48" rx="6" fill="#302a70" stroke="#463a9e" stroke-width="0.5"/>
<text x="577" y="343" text-anchor="middle" font-size="10.5" fill="#CECBF6">schemas.py:</text>
<text x="577" y="359" text-anchor="middle" font-size="10.5" fill="#CECBF6">Marshmallow (WEB/CLI)</text>

<rect x="640" y="325" width="110" height="48" rx="6" fill="#123f3a" stroke="#1c6157" stroke-width="0.5"/>
<text x="695" y="343" text-anchor="middle" font-size="10" fill="#9FE1CB">pydantic_schemas.py:</text>
<text x="695" y="359" text-anchor="middle" font-size="10" fill="#9FE1CB">Pydantic v2 (API/ only)</text>

<rect x="760" y="325" width="80" height="48" rx="6" fill="#302a70" stroke="#463a9e" stroke-width="0.5"/>
<text x="800" y="343" text-anchor="middle" font-size="10" fill="#CECBF6">logging_config.py</text>
<text x="800" y="359" text-anchor="middle" font-size="10" fill="#CECBF6">JSON logs</text>

<rect x="425" y="400" width="180" height="56" rx="6" fill="#5c2510" stroke="#8a3a1c" stroke-width="0.5"/>
<text x="515" y="418" text-anchor="middle" font-size="11" fill="#F0997B">services.py: Weather,</text>
<text x="515" y="434" text-anchor="middle" font-size="11" fill="#F0997B">geolocation &amp; rate limiting</text>

<rect x="425" y="470" width="180" height="40" rx="6" fill="#123f3a" stroke="#1c6157" stroke-width="0.5"/>
<text x="515" y="484" text-anchor="middle" font-size="10.5" fill="#9FE1CB">async_services.py: httpx.AsyncClient</text>
<text x="515" y="499" text-anchor="middle" font-size="10.5" fill="#9FE1CB">mirror of services.py (API/)</text>

<rect x="615" y="400" width="105" height="56" rx="6" fill="#5c2510" stroke="#8a3a1c" stroke-width="0.5"/>
<text x="667" y="418" text-anchor="middle" font-size="10.5" fill="#F0997B">cache.py: Redis</text>
<text x="667" y="434" text-anchor="middle" font-size="10.5" fill="#F0997B">TTL cache, fallback</text>

<rect x="615" y="470" width="105" height="40" rx="6" fill="#123f3a" stroke="#1c6157" stroke-width="0.5"/>
<text x="667" y="484" text-anchor="middle" font-size="10" fill="#9FE1CB">async_cache.py:</text>
<text x="667" y="499" text-anchor="middle" font-size="10" fill="#9FE1CB">redis.asyncio singleton</text>

<rect x="730" y="400" width="110" height="56" rx="6" fill="#5c2510" stroke="#8a3a1c" stroke-width="0.5"/>
<text x="785" y="418" text-anchor="middle" font-size="11" fill="#F0997B">Talisman / Prometheus</text>
<text x="785" y="434" text-anchor="middle" font-size="11" fill="#F0997B">security &amp; metrics</text>

<rect x="730" y="470" width="110" height="40" rx="6" fill="#123f3a" stroke="#1c6157" stroke-width="0.5"/>
<text x="785" y="484" text-anchor="middle" font-size="10" fill="#9FE1CB">async_db.py: asyncpg</text>
<text x="785" y="499" text-anchor="middle" font-size="10" fill="#9FE1CB">create_async_engine</text>

<line x1="472" y1="259" x2="472" y2="323" stroke="#5F5E5A" stroke-width="1.5" marker-end="url(#arrow)"/>
<path d="M520 259L577 323" stroke="#5F5E5A" stroke-width="1.5" fill="none" marker-end="url(#arrow)"/>
<path d="M590 259L590 270" stroke="#5F5E5A" stroke-width="1.5" fill="none" marker-end="url(#arrow)"/>
<path d="M712 259L695 323" stroke="#5F5E5A" stroke-width="1.5" fill="none" marker-end="url(#arrow)"/>
<path d="M812 259L800 323" stroke="#5F5E5A" stroke-width="1.5" fill="none" marker-end="url(#arrow)"/>
<path d="M470 373L500 398" stroke="#5F5E5A" stroke-width="1.5" fill="none" marker-end="url(#arrow)"/>
<path d="M577 373L570 398" stroke="#5F5E5A" stroke-width="1.5" fill="none" marker-end="url(#arrow)"/>
<path d="M695 373L730 398" stroke="#5F5E5A" stroke-width="1.5" fill="none" marker-end="url(#arrow)"/>
<path d="M800 373L785 398" stroke="#5F5E5A" stroke-width="1.5" fill="none" marker-end="url(#arrow)"/>
<path d="M515 456L515 468" stroke="#5F5E5A" stroke-width="1.5" fill="none" marker-end="url(#arrow)"/>
<path d="M667 456L667 468" stroke="#5F5E5A" stroke-width="1.5" fill="none" marker-end="url(#arrow)"/>
<path d="M785 456L785 468" stroke="#5F5E5A" stroke-width="1.5" fill="none" marker-end="url(#arrow)"/>

<path d="M605 428L615 428" stroke="#5F5E5A" stroke-width="1.5" fill="none" marker-end="url(#arrow)"/>
<text x="610" y="418" text-anchor="middle" font-size="9" fill="#888780">get/set</text>

<rect x="645" y="565" width="90" height="30" rx="6" fill="#601e37" stroke="#843050" stroke-width="0.5"/>
<text x="690" y="584" text-anchor="middle" font-size="11" fill="#ED93B1">Redis: TTL store</text>
<path d="M667 510L680 563" stroke="#5F5E5A" stroke-width="1.5" fill="none" marker-end="url(#arrow)"/>

<rect x="425" y="565" width="90" height="30" rx="6" fill="#39392f" stroke="#54534a" stroke-width="0.5"/>
<text x="470" y="584" text-anchor="middle" font-size="11" fill="#D3D1C7">WeatherAPI.com</text>

<rect x="545" y="565" width="90" height="30" rx="6" fill="#39392f" stroke="#54534a" stroke-width="0.5"/>
<text x="590" y="584" text-anchor="middle" font-size="11" fill="#D3D1C7">ip-api.com / ipinfo.io</text>

<line x1="490" y1="510" x2="470" y2="563" stroke="#5F5E5A" stroke-width="1.5" marker-end="url(#arrow)"/>
<line x1="500" y1="510" x2="590" y2="563" stroke="#5F5E5A" stroke-width="1.5" marker-end="url(#arrow)"/>

<rect x="60" y="410" width="180" height="150" rx="16" fill="#232320" stroke="#3a3a36" stroke-width="0.5"/>
<text x="150" y="432" text-anchor="middle" font-size="14" font-weight="600" fill="#F1EFE8">Data management</text>

<rect x="80" y="450" width="140" height="34" rx="6" fill="#302a70" stroke="#463a9e" stroke-width="0.5"/>
<text x="150" y="471" text-anchor="middle" font-size="11" fill="#CECBF6">alembic/: DB migrations</text>

<ellipse cx="150" cy="525" rx="60" ry="14" fill="#601e37" stroke="#843050" stroke-width="0.5"/>
<rect x="90" y="511" width="120" height="30" fill="#601e37" stroke="none"/>
<ellipse cx="150" cy="541" rx="60" ry="14" fill="#601e37" stroke="#843050" stroke-width="0.5"/>
<text x="150" y="530" text-anchor="middle" font-size="11" fill="#ED93B1">Postgres: schema</text>

<path d="M425 350L240 465" stroke="#5F5E5A" stroke-width="1.5" fill="none" marker-end="url(#arrow)"/>

<rect x="60" y="640" width="830" height="150" rx="16" fill="#1c2620" stroke="#2d4a3d" stroke-width="1"/>
<text x="475" y="665" text-anchor="middle" font-size="14" font-weight="600" fill="#9FE1CB">Render deployment — single image, single uvicorn process</text>

<rect x="90" y="685" width="230" height="70" rx="8" fill="#0d5a4e" stroke="#158a72" stroke-width="0.7"/>
<text x="205" y="708" text-anchor="middle" font-size="11" fill="#9FE1CB">API/Dockerfile</text>
<text x="205" y="724" text-anchor="middle" font-size="10.5" fill="#9FE1CB">uvicorn API.main:app</text>
<text x="205" y="740" text-anchor="middle" font-size="10.5" fill="#9FE1CB">(sole Render deploy target)</text>

<path d="M320 720L360 720" stroke="#5F5E5A" stroke-width="1.5" fill="none" marker-end="url(#arrow)"/>
<text x="340" y="710" text-anchor="middle" font-size="9" fill="#888780">mounts</text>

<rect x="360" y="685" width="230" height="70" rx="8" fill="#0d3d6e" stroke="#175a9e" stroke-width="0.7"/>
<text x="475" y="708" text-anchor="middle" font-size="11" fill="#B5D4F4">WEB/app.py (Flask)</text>
<text x="475" y="724" text-anchor="middle" font-size="10.5" fill="#B5D4F4">via fastapi.middleware.wsgi</text>
<text x="475" y="740" text-anchor="middle" font-size="10.5" fill="#B5D4F4">.WSGIMiddleware, mounted at "/"</text>

<text x="700" y="708" text-anchor="middle" font-size="10.5" fill="#D3D1C7">Local dev: WEB/ and API/</text>
<text x="700" y="724" text-anchor="middle" font-size="10.5" fill="#D3D1C7">still run as two separate</text>
<text x="700" y="740" text-anchor="middle" font-size="10.5" fill="#D3D1C7">docker-compose containers</text>
</svg>
